# Tiled2Unity generated file. Do not modify by hand.
# Wavefront file for 'mapa-prawie-gotowa_mesh_0010.obj'

# Vertices (Count = 656)
v -3008 -96 0
v -3024 -96 0
v -3024 -80 0
v -3008 -80 0
v -2992 -96 0
v -3008 -96 0
v -3008 -80 0
v -2992 -80 0
v -2976 -96 0
v -2992 -96 0
v -2992 -80 0
v -2976 -80 0
v -2960 -96 0
v -2976 -96 0
v -2976 -80 0
v -2960 -80 0
v -2944 -96 0
v -2960 -96 0
v -2960 -80 0
v -2944 -80 0
v -2928 -96 0
v -2944 -96 0
v -2944 -80 0
v -2928 -80 0
v -2912 -96 0
v -2928 -96 0
v -2928 -80 0
v -2912 -80 0
v -2896 -96 0
v -2912 -96 0
v -2912 -80 0
v -2896 -80 0
v -2880 -96 0
v -2896 -96 0
v -2896 -80 0
v -2880 -80 0
v -2864 -96 0
v -2880 -96 0
v -2880 -80 0
v -2864 -80 0
v -2848 -96 0
v -2864 -96 0
v -2864 -80 0
v -2848 -80 0
v -2832 -96 0
v -2848 -96 0
v -2848 -80 0
v -2832 -80 0
v -2816 -96 0
v -2832 -96 0
v -2832 -80 0
v -2816 -80 0
v -2800 -96 0
v -2816 -96 0
v -2816 -80 0
v -2800 -80 0
v -2784 -96 0
v -2800 -96 0
v -2800 -80 0
v -2784 -80 0
v -2768 -96 0
v -2784 -96 0
v -2784 -80 0
v -2768 -80 0
v -2752 -96 0
v -2768 -96 0
v -2768 -80 0
v -2752 -80 0
v -2736 -96 0
v -2752 -96 0
v -2752 -80 0
v -2736 -80 0
v -2720 -96 0
v -2736 -96 0
v -2736 -80 0
v -2720 -80 0
v -2704 -96 0
v -2720 -96 0
v -2720 -80 0
v -2704 -80 0
v -2688 -96 0
v -2704 -96 0
v -2704 -80 0
v -2688 -80 0
v -2672 -96 0
v -2688 -96 0
v -2688 -80 0
v -2672 -80 0
v -2656 -96 0
v -2672 -96 0
v -2672 -80 0
v -2656 -80 0
v -2640 -96 0
v -2656 -96 0
v -2656 -80 0
v -2640 -80 0
v -2624 -96 0
v -2640 -96 0
v -2640 -80 0
v -2624 -80 0
v -2608 -96 0
v -2624 -96 0
v -2624 -80 0
v -2608 -80 0
v -2592 -96 0
v -2608 -96 0
v -2608 -80 0
v -2592 -80 0
v -2576 -96 0
v -2592 -96 0
v -2592 -80 0
v -2576 -80 0
v -2560 -96 0
v -2576 -96 0
v -2576 -80 0
v -2560 -80 0
v -2544 -96 0
v -2560 -96 0
v -2560 -80 0
v -2544 -80 0
v -2528 -96 0
v -2544 -96 0
v -2544 -80 0
v -2528 -80 0
v -2512 -96 0
v -2528 -96 0
v -2528 -80 0
v -2512 -80 0
v -3008 -80 0
v -3024 -80 0
v -3024 -64 0
v -3008 -64 0
v -2992 -80 0
v -3008 -80 0
v -3008 -64 0
v -2992 -64 0
v -2976 -80 0
v -2992 -80 0
v -2992 -64 0
v -2976 -64 0
v -2960 -80 0
v -2976 -80 0
v -2976 -64 0
v -2960 -64 0
v -2944 -80 0
v -2960 -80 0
v -2960 -64 0
v -2944 -64 0
v -2928 -80 0
v -2944 -80 0
v -2944 -64 0
v -2928 -64 0
v -2912 -80 0
v -2928 -80 0
v -2928 -64 0
v -2912 -64 0
v -2896 -80 0
v -2912 -80 0
v -2912 -64 0
v -2896 -64 0
v -2880 -80 0
v -2896 -80 0
v -2896 -64 0
v -2880 -64 0
v -2864 -80 0
v -2880 -80 0
v -2880 -64 0
v -2864 -64 0
v -2848 -80 0
v -2864 -80 0
v -2864 -64 0
v -2848 -64 0
v -2832 -80 0
v -2848 -80 0
v -2848 -64 0
v -2832 -64 0
v -2816 -80 0
v -2832 -80 0
v -2832 -64 0
v -2816 -64 0
v -2800 -80 0
v -2816 -80 0
v -2816 -64 0
v -2800 -64 0
v -2784 -80 0
v -2800 -80 0
v -2800 -64 0
v -2784 -64 0
v -2768 -80 0
v -2784 -80 0
v -2784 -64 0
v -2768 -64 0
v -2752 -80 0
v -2768 -80 0
v -2768 -64 0
v -2752 -64 0
v -2736 -80 0
v -2752 -80 0
v -2752 -64 0
v -2736 -64 0
v -2720 -80 0
v -2736 -80 0
v -2736 -64 0
v -2720 -64 0
v -2704 -80 0
v -2720 -80 0
v -2720 -64 0
v -2704 -64 0
v -2688 -80 0
v -2704 -80 0
v -2704 -64 0
v -2688 -64 0
v -2672 -80 0
v -2688 -80 0
v -2688 -64 0
v -2672 -64 0
v -2656 -80 0
v -2672 -80 0
v -2672 -64 0
v -2656 -64 0
v -2640 -80 0
v -2656 -80 0
v -2656 -64 0
v -2640 -64 0
v -2624 -80 0
v -2640 -80 0
v -2640 -64 0
v -2624 -64 0
v -2608 -80 0
v -2624 -80 0
v -2624 -64 0
v -2608 -64 0
v -2592 -80 0
v -2608 -80 0
v -2608 -64 0
v -2592 -64 0
v -2576 -80 0
v -2592 -80 0
v -2592 -64 0
v -2576 -64 0
v -2560 -80 0
v -2576 -80 0
v -2576 -64 0
v -2560 -64 0
v -2544 -80 0
v -2560 -80 0
v -2560 -64 0
v -2544 -64 0
v -2528 -80 0
v -2544 -80 0
v -2544 -64 0
v -2528 -64 0
v -2512 -80 0
v -2528 -80 0
v -2528 -64 0
v -2512 -64 0
v -3008 -64 0
v -3024 -64 0
v -3024 -48 0
v -3008 -48 0
v -2992 -64 0
v -3008 -64 0
v -3008 -48 0
v -2992 -48 0
v -2976 -64 0
v -2992 -64 0
v -2992 -48 0
v -2976 -48 0
v -2960 -64 0
v -2976 -64 0
v -2976 -48 0
v -2960 -48 0
v -2944 -64 0
v -2960 -64 0
v -2960 -48 0
v -2944 -48 0
v -2928 -64 0
v -2944 -64 0
v -2944 -48 0
v -2928 -48 0
v -2912 -64 0
v -2928 -64 0
v -2928 -48 0
v -2912 -48 0
v -2896 -64 0
v -2912 -64 0
v -2912 -48 0
v -2896 -48 0
v -2880 -64 0
v -2896 -64 0
v -2896 -48 0
v -2880 -48 0
v -2864 -64 0
v -2880 -64 0
v -2880 -48 0
v -2864 -48 0
v -2848 -64 0
v -2864 -64 0
v -2864 -48 0
v -2848 -48 0
v -2832 -64 0
v -2848 -64 0
v -2848 -48 0
v -2832 -48 0
v -2816 -64 0
v -2832 -64 0
v -2832 -48 0
v -2816 -48 0
v -2800 -64 0
v -2816 -64 0
v -2816 -48 0
v -2800 -48 0
v -2784 -64 0
v -2800 -64 0
v -2800 -48 0
v -2784 -48 0
v -2768 -64 0
v -2784 -64 0
v -2784 -48 0
v -2768 -48 0
v -2752 -64 0
v -2768 -64 0
v -2768 -48 0
v -2752 -48 0
v -2736 -64 0
v -2752 -64 0
v -2752 -48 0
v -2736 -48 0
v -2720 -64 0
v -2736 -64 0
v -2736 -48 0
v -2720 -48 0
v -2704 -64 0
v -2720 -64 0
v -2720 -48 0
v -2704 -48 0
v -2688 -64 0
v -2704 -64 0
v -2704 -48 0
v -2688 -48 0
v -2672 -64 0
v -2688 -64 0
v -2688 -48 0
v -2672 -48 0
v -2656 -64 0
v -2672 -64 0
v -2672 -48 0
v -2656 -48 0
v -2640 -64 0
v -2656 -64 0
v -2656 -48 0
v -2640 -48 0
v -2624 -64 0
v -2640 -64 0
v -2640 -48 0
v -2624 -48 0
v -2608 -64 0
v -2624 -64 0
v -2624 -48 0
v -2608 -48 0
v -2592 -64 0
v -2608 -64 0
v -2608 -48 0
v -2592 -48 0
v -2576 -64 0
v -2592 -64 0
v -2592 -48 0
v -2576 -48 0
v -2560 -64 0
v -2576 -64 0
v -2576 -48 0
v -2560 -48 0
v -2544 -64 0
v -2560 -64 0
v -2560 -48 0
v -2544 -48 0
v -2528 -64 0
v -2544 -64 0
v -2544 -48 0
v -2528 -48 0
v -2512 -64 0
v -2528 -64 0
v -2528 -48 0
v -2512 -48 0
v -3008 -48 0
v -3024 -48 0
v -3024 -32 0
v -3008 -32 0
v -2992 -48 0
v -3008 -48 0
v -3008 -32 0
v -2992 -32 0
v -2976 -48 0
v -2992 -48 0
v -2992 -32 0
v -2976 -32 0
v -2960 -48 0
v -2976 -48 0
v -2976 -32 0
v -2960 -32 0
v -2944 -48 0
v -2960 -48 0
v -2960 -32 0
v -2944 -32 0
v -2928 -48 0
v -2944 -48 0
v -2944 -32 0
v -2928 -32 0
v -2912 -48 0
v -2928 -48 0
v -2928 -32 0
v -2912 -32 0
v -2896 -48 0
v -2912 -48 0
v -2912 -32 0
v -2896 -32 0
v -2880 -48 0
v -2896 -48 0
v -2896 -32 0
v -2880 -32 0
v -2864 -48 0
v -2880 -48 0
v -2880 -32 0
v -2864 -32 0
v -2848 -48 0
v -2864 -48 0
v -2864 -32 0
v -2848 -32 0
v -2832 -48 0
v -2848 -48 0
v -2848 -32 0
v -2832 -32 0
v -2816 -48 0
v -2832 -48 0
v -2832 -32 0
v -2816 -32 0
v -2800 -48 0
v -2816 -48 0
v -2816 -32 0
v -2800 -32 0
v -2784 -48 0
v -2800 -48 0
v -2800 -32 0
v -2784 -32 0
v -2768 -48 0
v -2784 -48 0
v -2784 -32 0
v -2768 -32 0
v -2752 -48 0
v -2768 -48 0
v -2768 -32 0
v -2752 -32 0
v -2736 -48 0
v -2752 -48 0
v -2752 -32 0
v -2736 -32 0
v -2720 -48 0
v -2736 -48 0
v -2736 -32 0
v -2720 -32 0
v -2704 -48 0
v -2720 -48 0
v -2720 -32 0
v -2704 -32 0
v -2688 -48 0
v -2704 -48 0
v -2704 -32 0
v -2688 -32 0
v -2672 -48 0
v -2688 -48 0
v -2688 -32 0
v -2672 -32 0
v -2656 -48 0
v -2672 -48 0
v -2672 -32 0
v -2656 -32 0
v -2640 -48 0
v -2656 -48 0
v -2656 -32 0
v -2640 -32 0
v -2624 -48 0
v -2640 -48 0
v -2640 -32 0
v -2624 -32 0
v -2608 -48 0
v -2624 -48 0
v -2624 -32 0
v -2608 -32 0
v -2592 -48 0
v -2608 -48 0
v -2608 -32 0
v -2592 -32 0
v -2576 -48 0
v -2592 -48 0
v -2592 -32 0
v -2576 -32 0
v -2560 -48 0
v -2576 -48 0
v -2576 -32 0
v -2560 -32 0
v -2544 -48 0
v -2560 -48 0
v -2560 -32 0
v -2544 -32 0
v -2528 -48 0
v -2544 -48 0
v -2544 -32 0
v -2528 -32 0
v -2512 -48 0
v -2528 -48 0
v -2528 -32 0
v -2512 -32 0
v -3008 -32 0
v -3024 -32 0
v -3024 -16 0
v -3008 -16 0
v -2992 -32 0
v -3008 -32 0
v -3008 -16 0
v -2992 -16 0
v -2976 -32 0
v -2992 -32 0
v -2992 -16 0
v -2976 -16 0
v -2960 -32 0
v -2976 -32 0
v -2976 -16 0
v -2960 -16 0
v -2944 -32 0
v -2960 -32 0
v -2960 -16 0
v -2944 -16 0
v -2928 -32 0
v -2944 -32 0
v -2944 -16 0
v -2928 -16 0
v -2912 -32 0
v -2928 -32 0
v -2928 -16 0
v -2912 -16 0
v -2896 -32 0
v -2912 -32 0
v -2912 -16 0
v -2896 -16 0
v -2880 -32 0
v -2896 -32 0
v -2896 -16 0
v -2880 -16 0
v -2864 -32 0
v -2880 -32 0
v -2880 -16 0
v -2864 -16 0
v -2848 -32 0
v -2864 -32 0
v -2864 -16 0
v -2848 -16 0
v -2832 -32 0
v -2848 -32 0
v -2848 -16 0
v -2832 -16 0
v -2816 -32 0
v -2832 -32 0
v -2832 -16 0
v -2816 -16 0
v -2800 -32 0
v -2816 -32 0
v -2816 -16 0
v -2800 -16 0
v -2784 -32 0
v -2800 -32 0
v -2800 -16 0
v -2784 -16 0
v -2768 -32 0
v -2784 -32 0
v -2784 -16 0
v -2768 -16 0
v -2752 -32 0
v -2768 -32 0
v -2768 -16 0
v -2752 -16 0
v -2736 -32 0
v -2752 -32 0
v -2752 -16 0
v -2736 -16 0
v -2720 -32 0
v -2736 -32 0
v -2736 -16 0
v -2720 -16 0
v -2704 -32 0
v -2720 -32 0
v -2720 -16 0
v -2704 -16 0
v -2688 -32 0
v -2704 -32 0
v -2704 -16 0
v -2688 -16 0
v -2672 -32 0
v -2688 -32 0
v -2688 -16 0
v -2672 -16 0
v -2656 -32 0
v -2672 -32 0
v -2672 -16 0
v -2656 -16 0
v -2640 -32 0
v -2656 -32 0
v -2656 -16 0
v -2640 -16 0
v -2624 -32 0
v -2640 -32 0
v -2640 -16 0
v -2624 -16 0
v -2608 -32 0
v -2624 -32 0
v -2624 -16 0
v -2608 -16 0
v -2592 -32 0
v -2608 -32 0
v -2608 -16 0
v -2592 -16 0
v -2576 -32 0
v -2592 -32 0
v -2592 -16 0
v -2576 -16 0
v -2560 -32 0
v -2576 -32 0
v -2576 -16 0
v -2560 -16 0
v -2544 -32 0
v -2560 -32 0
v -2560 -16 0
v -2544 -16 0
v -2528 -32 0
v -2544 -32 0
v -2544 -16 0
v -2528 -16 0
v -2512 -32 0
v -2528 -32 0
v -2528 -16 0
v -2512 -16 0
v -3024 -16 0
v -3040 -16 0
v -3040 0 0
v -3024 0 0
v -3008 -16 0
v -3024 -16 0
v -3024 0 0
v -3008 0 0
v -2512 -16 0
v -2528 -16 0
v -2528 0 0
v -2512 0 0
v -2496 -16 0
v -2512 -16 0
v -2512 0 0
v -2496 0 0

# Texture cooridinates (Count = 32)
vt 0.5268595 0.362353
vt 0.5433884 0.362353
vt 0.5433884 0.4
vt 0.5268595 0.4
vt 0.3863636 0.2823529
vt 0.4028926 0.2823529
vt 0.4028926 0.32
vt 0.3863636 0.32
vt 0.3688017 0.2823529
vt 0.3853306 0.2823529
vt 0.3853306 0.32
vt 0.3688017 0.32
vt 0.3512397 0.2823529
vt 0.3677686 0.2823529
vt 0.3677686 0.32
vt 0.3512397 0.32
vt 0.5092975 0.362353
vt 0.5258265 0.362353
vt 0.5258265 0.4
vt 0.5092975 0.4
vt 0.4917355 0.362353
vt 0.5082645 0.362353
vt 0.5082645 0.4
vt 0.4917355 0.4
vt 0.5795454 0.4023529
vt 0.5960744 0.4023529
vt 0.5960744 0.44
vt 0.5795454 0.44
vt 0.4917355 0.4023529
vt 0.5082645 0.4023529
vt 0.5082645 0.44
vt 0.4917355 0.44

# Normal
vn 0 0 -1

# Mesh description
g mapa-prawie-gotowa_mesh_0010

# Faces
f 1/1/1 2/2/1 3/3/1 4/4/1
f 5/1/1 6/2/1 7/3/1 8/4/1
f 9/1/1 10/2/1 11/3/1 12/4/1
f 13/1/1 14/2/1 15/3/1 16/4/1
f 17/1/1 18/2/1 19/3/1 20/4/1
f 21/1/1 22/2/1 23/3/1 24/4/1
f 25/1/1 26/2/1 27/3/1 28/4/1
f 29/1/1 30/2/1 31/3/1 32/4/1
f 33/1/1 34/2/1 35/3/1 36/4/1
f 37/1/1 38/2/1 39/3/1 40/4/1
f 41/1/1 42/2/1 43/3/1 44/4/1
f 45/1/1 46/2/1 47/3/1 48/4/1
f 49/5/1 50/6/1 51/7/1 52/8/1
f 53/9/1 54/10/1 55/11/1 56/12/1
f 57/9/1 58/10/1 59/11/1 60/12/1
f 61/9/1 62/10/1 63/11/1 64/12/1
f 65/9/1 66/10/1 67/11/1 68/12/1
f 69/9/1 70/10/1 71/11/1 72/12/1
f 73/9/1 74/10/1 75/11/1 76/12/1
f 77/13/1 78/14/1 79/15/1 80/16/1
f 81/1/1 82/2/1 83/3/1 84/4/1
f 85/1/1 86/2/1 87/3/1 88/4/1
f 89/1/1 90/2/1 91/3/1 92/4/1
f 93/1/1 94/2/1 95/3/1 96/4/1
f 97/1/1 98/2/1 99/3/1 100/4/1
f 101/17/1 102/18/1 103/19/1 104/20/1
f 105/21/1 106/22/1 107/23/1 108/24/1
f 109/17/1 110/18/1 111/19/1 112/20/1
f 113/21/1 114/22/1 115/23/1 116/24/1
f 117/1/1 118/2/1 119/3/1 120/4/1
f 121/17/1 122/18/1 123/19/1 124/20/1
f 125/21/1 126/22/1 127/23/1 128/24/1
f 129/1/1 130/2/1 131/3/1 132/4/1
f 133/1/1 134/2/1 135/3/1 136/4/1
f 137/1/1 138/2/1 139/3/1 140/4/1
f 141/17/1 142/18/1 143/19/1 144/20/1
f 145/21/1 146/22/1 147/23/1 148/24/1
f 149/21/1 150/22/1 151/23/1 152/24/1
f 153/21/1 154/22/1 155/23/1 156/24/1
f 157/21/1 158/22/1 159/23/1 160/24/1
f 161/21/1 162/22/1 163/23/1 164/24/1
f 165/21/1 166/22/1 167/23/1 168/24/1
f 169/21/1 170/22/1 171/23/1 172/24/1
f 173/21/1 174/22/1 175/23/1 176/24/1
f 177/5/1 178/6/1 179/7/1 180/8/1
f 181/9/1 182/10/1 183/11/1 184/12/1
f 185/9/1 186/10/1 187/11/1 188/12/1
f 189/9/1 190/10/1 191/11/1 192/12/1
f 193/9/1 194/10/1 195/11/1 196/12/1
f 197/9/1 198/10/1 199/11/1 200/12/1
f 201/9/1 202/10/1 203/11/1 204/12/1
f 205/13/1 206/14/1 207/15/1 208/16/1
f 209/21/1 210/22/1 211/23/1 212/24/1
f 213/21/1 214/22/1 215/23/1 216/24/1
f 217/21/1 218/22/1 219/23/1 220/24/1
f 221/21/1 222/22/1 223/23/1 224/24/1
f 225/21/1 226/22/1 227/23/1 228/24/1
f 229/21/1 230/22/1 231/23/1 232/24/1
f 233/21/1 234/22/1 235/23/1 236/24/1
f 237/17/1 238/18/1 239/19/1 240/20/1
f 241/21/1 242/22/1 243/23/1 244/24/1
f 245/1/1 246/2/1 247/3/1 248/4/1
f 249/17/1 250/18/1 251/19/1 252/20/1
f 253/21/1 254/22/1 255/23/1 256/24/1
f 257/1/1 258/2/1 259/3/1 260/4/1
f 261/17/1 262/18/1 263/19/1 264/20/1
f 265/1/1 266/2/1 267/3/1 268/4/1
f 269/1/1 270/2/1 271/3/1 272/4/1
f 273/1/1 274/2/1 275/3/1 276/4/1
f 277/1/1 278/2/1 279/3/1 280/4/1
f 281/1/1 282/2/1 283/3/1 284/4/1
f 285/1/1 286/2/1 287/3/1 288/4/1
f 289/1/1 290/2/1 291/3/1 292/4/1
f 293/1/1 294/2/1 295/3/1 296/4/1
f 297/1/1 298/2/1 299/3/1 300/4/1
f 301/1/1 302/2/1 303/3/1 304/4/1
f 305/5/1 306/6/1 307/7/1 308/8/1
f 309/8/1 310/5/1 311/6/1 312/7/1
f 313/8/1 314/5/1 315/6/1 316/7/1
f 317/8/1 318/5/1 319/6/1 320/7/1
f 321/8/1 322/5/1 323/6/1 324/7/1
f 325/8/1 326/5/1 327/6/1 328/7/1
f 329/8/1 330/5/1 331/6/1 332/7/1
f 333/13/1 334/14/1 335/15/1 336/16/1
f 337/1/1 338/2/1 339/3/1 340/4/1
f 341/1/1 342/2/1 343/3/1 344/4/1
f 345/1/1 346/2/1 347/3/1 348/4/1
f 349/1/1 350/2/1 351/3/1 352/4/1
f 353/1/1 354/2/1 355/3/1 356/4/1
f 357/1/1 358/2/1 359/3/1 360/4/1
f 361/17/1 362/18/1 363/19/1 364/20/1
f 365/21/1 366/22/1 367/23/1 368/24/1
f 369/21/1 370/22/1 371/23/1 372/24/1
f 373/1/1 374/2/1 375/3/1 376/4/1
f 377/17/1 378/18/1 379/19/1 380/20/1
f 381/21/1 382/22/1 383/23/1 384/24/1
f 385/1/1 386/2/1 387/3/1 388/4/1
f 389/17/1 390/18/1 391/19/1 392/20/1
f 393/21/1 394/22/1 395/23/1 396/24/1
f 397/21/1 398/22/1 399/23/1 400/24/1
f 401/21/1 402/22/1 403/23/1 404/24/1
f 405/21/1 406/22/1 407/23/1 408/24/1
f 409/21/1 410/22/1 411/23/1 412/24/1
f 413/21/1 414/22/1 415/23/1 416/24/1
f 417/21/1 418/22/1 419/23/1 420/24/1
f 421/21/1 422/22/1 423/23/1 424/24/1
f 425/21/1 426/22/1 427/23/1 428/24/1
f 429/21/1 430/22/1 431/23/1 432/24/1
f 433/21/1 434/22/1 435/23/1 436/24/1
f 437/21/1 438/22/1 439/23/1 440/24/1
f 441/21/1 442/22/1 443/23/1 444/24/1
f 445/21/1 446/22/1 447/23/1 448/24/1
f 449/21/1 450/22/1 451/23/1 452/24/1
f 453/21/1 454/22/1 455/23/1 456/24/1
f 457/21/1 458/22/1 459/23/1 460/24/1
f 461/21/1 462/22/1 463/23/1 464/24/1
f 465/21/1 466/22/1 467/23/1 468/24/1
f 469/21/1 470/22/1 471/23/1 472/24/1
f 473/21/1 474/22/1 475/23/1 476/24/1
f 477/21/1 478/22/1 479/23/1 480/24/1
f 481/21/1 482/22/1 483/23/1 484/24/1
f 485/17/1 486/18/1 487/19/1 488/20/1
f 489/21/1 490/22/1 491/23/1 492/24/1
f 493/17/1 494/18/1 495/19/1 496/20/1
f 497/21/1 498/22/1 499/23/1 500/24/1
f 501/1/1 502/2/1 503/3/1 504/4/1
f 505/17/1 506/18/1 507/19/1 508/20/1
f 509/21/1 510/22/1 511/23/1 512/24/1
f 513/25/1 514/26/1 515/27/1 516/28/1
f 517/29/1 518/30/1 519/31/1 520/32/1
f 521/25/1 522/26/1 523/27/1 524/28/1
f 525/29/1 526/30/1 527/31/1 528/32/1
f 529/25/1 530/26/1 531/27/1 532/28/1
f 533/29/1 534/30/1 535/31/1 536/32/1
f 537/25/1 538/26/1 539/27/1 540/28/1
f 541/29/1 542/30/1 543/31/1 544/32/1
f 545/25/1 546/26/1 547/27/1 548/28/1
f 549/29/1 550/30/1 551/31/1 552/32/1
f 553/25/1 554/26/1 555/27/1 556/28/1
f 557/29/1 558/30/1 559/31/1 560/32/1
f 561/25/1 562/26/1 563/27/1 564/28/1
f 565/29/1 566/30/1 567/31/1 568/32/1
f 569/25/1 570/26/1 571/27/1 572/28/1
f 573/29/1 574/30/1 575/31/1 576/32/1
f 577/25/1 578/26/1 579/27/1 580/28/1
f 581/29/1 582/30/1 583/31/1 584/32/1
f 585/25/1 586/26/1 587/27/1 588/28/1
f 589/29/1 590/30/1 591/31/1 592/32/1
f 593/25/1 594/26/1 595/27/1 596/28/1
f 597/29/1 598/30/1 599/31/1 600/32/1
f 601/25/1 602/26/1 603/27/1 604/28/1
f 605/29/1 606/30/1 607/31/1 608/32/1
f 609/25/1 610/26/1 611/27/1 612/28/1
f 613/29/1 614/30/1 615/31/1 616/32/1
f 617/25/1 618/26/1 619/27/1 620/28/1
f 621/29/1 622/30/1 623/31/1 624/32/1
f 625/25/1 626/26/1 627/27/1 628/28/1
f 629/29/1 630/30/1 631/31/1 632/32/1
f 633/25/1 634/26/1 635/27/1 636/28/1
f 637/29/1 638/30/1 639/31/1 640/32/1
f 641/25/1 642/26/1 643/27/1 644/28/1
f 645/29/1 646/30/1 647/31/1 648/32/1
f 649/25/1 650/26/1 651/27/1 652/28/1
f 653/29/1 654/30/1 655/31/1 656/32/1

