# Tiled2Unity generated file. Do not modify by hand.
# Wavefront file for 'mapa-prawie-gotowa_mesh_0005.obj'

# Vertices (Count = 624)
v -3040 -848 0
v -3056 -848 0
v -3056 -832 0
v -3040 -832 0
v -3024 -848 0
v -3040 -848 0
v -3040 -832 0
v -3024 -832 0
v -3008 -848 0
v -3024 -848 0
v -3024 -832 0
v -3008 -832 0
v -2992 -848 0
v -3008 -848 0
v -3008 -832 0
v -2992 -832 0
v -2976 -848 0
v -2992 -848 0
v -2992 -832 0
v -2976 -832 0
v -2960 -848 0
v -2976 -848 0
v -2976 -832 0
v -2960 -832 0
v -2944 -848 0
v -2960 -848 0
v -2960 -832 0
v -2944 -832 0
v -2928 -848 0
v -2944 -848 0
v -2944 -832 0
v -2928 -832 0
v -2912 -848 0
v -2928 -848 0
v -2928 -832 0
v -2912 -832 0
v -2896 -848 0
v -2912 -848 0
v -2912 -832 0
v -2896 -832 0
v -2880 -848 0
v -2896 -848 0
v -2896 -832 0
v -2880 -832 0
v -2864 -848 0
v -2880 -848 0
v -2880 -832 0
v -2864 -832 0
v -2848 -848 0
v -2864 -848 0
v -2864 -832 0
v -2848 -832 0
v -2832 -848 0
v -2848 -848 0
v -2848 -832 0
v -2832 -832 0
v -3040 -832 0
v -3056 -832 0
v -3056 -816 0
v -3040 -816 0
v -3040 -816 0
v -3056 -816 0
v -3056 -800 0
v -3040 -800 0
v -3008 -816 0
v -3024 -816 0
v -3024 -800 0
v -3008 -800 0
v -2992 -816 0
v -3008 -816 0
v -3008 -800 0
v -2992 -800 0
v -2976 -816 0
v -2992 -816 0
v -2992 -800 0
v -2976 -800 0
v -2960 -816 0
v -2976 -816 0
v -2976 -800 0
v -2960 -800 0
v -2944 -816 0
v -2960 -816 0
v -2960 -800 0
v -2944 -800 0
v -2928 -816 0
v -2944 -816 0
v -2944 -800 0
v -2928 -800 0
v -2912 -816 0
v -2928 -816 0
v -2928 -800 0
v -2912 -800 0
v -2896 -816 0
v -2912 -816 0
v -2912 -800 0
v -2896 -800 0
v -2880 -816 0
v -2896 -816 0
v -2896 -800 0
v -2880 -800 0
v -2864 -816 0
v -2880 -816 0
v -2880 -800 0
v -2864 -800 0
v -2848 -816 0
v -2864 -816 0
v -2864 -800 0
v -2848 -800 0
v -2832 -816 0
v -2848 -816 0
v -2848 -800 0
v -2832 -800 0
v -3040 -800 0
v -3056 -800 0
v -3056 -784 0
v -3040 -784 0
v -3008 -800 0
v -3024 -800 0
v -3024 -784 0
v -3008 -784 0
v -2992 -800 0
v -3008 -800 0
v -3008 -784 0
v -2992 -784 0
v -2976 -800 0
v -2992 -800 0
v -2992 -784 0
v -2976 -784 0
v -2960 -800 0
v -2976 -800 0
v -2976 -784 0
v -2960 -784 0
v -2944 -800 0
v -2960 -800 0
v -2960 -784 0
v -2944 -784 0
v -2928 -800 0
v -2944 -800 0
v -2944 -784 0
v -2928 -784 0
v -2912 -800 0
v -2928 -800 0
v -2928 -784 0
v -2912 -784 0
v -2896 -800 0
v -2912 -800 0
v -2912 -784 0
v -2896 -784 0
v -2880 -800 0
v -2896 -800 0
v -2896 -784 0
v -2880 -784 0
v -2864 -800 0
v -2880 -800 0
v -2880 -784 0
v -2864 -784 0
v -2848 -800 0
v -2864 -800 0
v -2864 -784 0
v -2848 -784 0
v -2832 -800 0
v -2848 -800 0
v -2848 -784 0
v -2832 -784 0
v -3040 -784 0
v -3056 -784 0
v -3056 -768 0
v -3040 -768 0
v -3008 -784 0
v -3024 -784 0
v -3024 -768 0
v -3008 -768 0
v -2992 -784 0
v -3008 -784 0
v -3008 -768 0
v -2992 -768 0
v -2976 -784 0
v -2992 -784 0
v -2992 -768 0
v -2976 -768 0
v -2960 -784 0
v -2976 -784 0
v -2976 -768 0
v -2960 -768 0
v -2944 -784 0
v -2960 -784 0
v -2960 -768 0
v -2944 -768 0
v -2928 -784 0
v -2944 -784 0
v -2944 -768 0
v -2928 -768 0
v -2912 -784 0
v -2928 -784 0
v -2928 -768 0
v -2912 -768 0
v -2896 -784 0
v -2912 -784 0
v -2912 -768 0
v -2896 -768 0
v -2880 -784 0
v -2896 -784 0
v -2896 -768 0
v -2880 -768 0
v -2864 -784 0
v -2880 -784 0
v -2880 -768 0
v -2864 -768 0
v -2848 -784 0
v -2864 -784 0
v -2864 -768 0
v -2848 -768 0
v -2832 -784 0
v -2848 -784 0
v -2848 -768 0
v -2832 -768 0
v -2800 -784 0
v -2816 -784 0
v -2816 -768 0
v -2800 -768 0
v -2784 -784 0
v -2800 -784 0
v -2800 -768 0
v -2784 -768 0
v -3040 -768 0
v -3056 -768 0
v -3056 -752 0
v -3040 -752 0
v -3008 -768 0
v -3024 -768 0
v -3024 -752 0
v -3008 -752 0
v -2992 -768 0
v -3008 -768 0
v -3008 -752 0
v -2992 -752 0
v -2976 -768 0
v -2992 -768 0
v -2992 -752 0
v -2976 -752 0
v -2960 -768 0
v -2976 -768 0
v -2976 -752 0
v -2960 -752 0
v -2944 -768 0
v -2960 -768 0
v -2960 -752 0
v -2944 -752 0
v -2928 -768 0
v -2944 -768 0
v -2944 -752 0
v -2928 -752 0
v -2912 -768 0
v -2928 -768 0
v -2928 -752 0
v -2912 -752 0
v -2896 -768 0
v -2912 -768 0
v -2912 -752 0
v -2896 -752 0
v -2880 -768 0
v -2896 -768 0
v -2896 -752 0
v -2880 -752 0
v -2864 -768 0
v -2880 -768 0
v -2880 -752 0
v -2864 -752 0
v -2848 -768 0
v -2864 -768 0
v -2864 -752 0
v -2848 -752 0
v -2832 -768 0
v -2848 -768 0
v -2848 -752 0
v -2832 -752 0
v -2800 -768 0
v -2816 -768 0
v -2816 -752 0
v -2800 -752 0
v -2784 -768 0
v -2800 -768 0
v -2800 -752 0
v -2784 -752 0
v -3040 -752 0
v -3056 -752 0
v -3056 -736 0
v -3040 -736 0
v -3008 -752 0
v -3024 -752 0
v -3024 -736 0
v -3008 -736 0
v -2992 -752 0
v -3008 -752 0
v -3008 -736 0
v -2992 -736 0
v -2976 -752 0
v -2992 -752 0
v -2992 -736 0
v -2976 -736 0
v -2960 -752 0
v -2976 -752 0
v -2976 -736 0
v -2960 -736 0
v -2944 -752 0
v -2960 -752 0
v -2960 -736 0
v -2944 -736 0
v -2928 -752 0
v -2944 -752 0
v -2944 -736 0
v -2928 -736 0
v -2912 -752 0
v -2928 -752 0
v -2928 -736 0
v -2912 -736 0
v -2896 -752 0
v -2912 -752 0
v -2912 -736 0
v -2896 -736 0
v -2880 -752 0
v -2896 -752 0
v -2896 -736 0
v -2880 -736 0
v -2864 -752 0
v -2880 -752 0
v -2880 -736 0
v -2864 -736 0
v -2848 -752 0
v -2864 -752 0
v -2864 -736 0
v -2848 -736 0
v -2832 -752 0
v -2848 -752 0
v -2848 -736 0
v -2832 -736 0
v -3040 -736 0
v -3056 -736 0
v -3056 -720 0
v -3040 -720 0
v -3008 -736 0
v -3024 -736 0
v -3024 -720 0
v -3008 -720 0
v -2992 -736 0
v -3008 -736 0
v -3008 -720 0
v -2992 -720 0
v -2976 -736 0
v -2992 -736 0
v -2992 -720 0
v -2976 -720 0
v -2960 -736 0
v -2976 -736 0
v -2976 -720 0
v -2960 -720 0
v -2944 -736 0
v -2960 -736 0
v -2960 -720 0
v -2944 -720 0
v -2928 -736 0
v -2944 -736 0
v -2944 -720 0
v -2928 -720 0
v -2912 -736 0
v -2928 -736 0
v -2928 -720 0
v -2912 -720 0
v -2896 -736 0
v -2912 -736 0
v -2912 -720 0
v -2896 -720 0
v -2880 -736 0
v -2896 -736 0
v -2896 -720 0
v -2880 -720 0
v -2864 -736 0
v -2880 -736 0
v -2880 -720 0
v -2864 -720 0
v -2848 -736 0
v -2864 -736 0
v -2864 -720 0
v -2848 -720 0
v -2832 -736 0
v -2848 -736 0
v -2848 -720 0
v -2832 -720 0
v -3040 -720 0
v -3056 -720 0
v -3056 -704 0
v -3040 -704 0
v -3008 -720 0
v -3024 -720 0
v -3024 -704 0
v -3008 -704 0
v -2992 -720 0
v -3008 -720 0
v -3008 -704 0
v -2992 -704 0
v -2976 -720 0
v -2992 -720 0
v -2992 -704 0
v -2976 -704 0
v -2960 -720 0
v -2976 -720 0
v -2976 -704 0
v -2960 -704 0
v -2944 -720 0
v -2960 -720 0
v -2960 -704 0
v -2944 -704 0
v -2928 -720 0
v -2944 -720 0
v -2944 -704 0
v -2928 -704 0
v -2912 -720 0
v -2928 -720 0
v -2928 -704 0
v -2912 -704 0
v -2896 -720 0
v -2912 -720 0
v -2912 -704 0
v -2896 -704 0
v -2880 -720 0
v -2896 -720 0
v -2896 -704 0
v -2880 -704 0
v -2864 -720 0
v -2880 -720 0
v -2880 -704 0
v -2864 -704 0
v -2848 -720 0
v -2864 -720 0
v -2864 -704 0
v -2848 -704 0
v -2832 -720 0
v -2848 -720 0
v -2848 -704 0
v -2832 -704 0
v -3040 -704 0
v -3056 -704 0
v -3056 -688 0
v -3040 -688 0
v -3024 -704 0
v -3040 -704 0
v -3040 -688 0
v -3024 -688 0
v -3008 -704 0
v -3024 -704 0
v -3024 -688 0
v -3008 -688 0
v -2992 -704 0
v -3008 -704 0
v -3008 -688 0
v -2992 -688 0
v -2976 -704 0
v -2992 -704 0
v -2992 -688 0
v -2976 -688 0
v -2960 -704 0
v -2976 -704 0
v -2976 -688 0
v -2960 -688 0
v -2944 -704 0
v -2960 -704 0
v -2960 -688 0
v -2944 -688 0
v -2928 -704 0
v -2944 -704 0
v -2944 -688 0
v -2928 -688 0
v -2912 -704 0
v -2928 -704 0
v -2928 -688 0
v -2912 -688 0
v -2896 -704 0
v -2912 -704 0
v -2912 -688 0
v -2896 -688 0
v -2880 -704 0
v -2896 -704 0
v -2896 -688 0
v -2880 -688 0
v -2864 -704 0
v -2880 -704 0
v -2880 -688 0
v -2864 -688 0
v -2848 -704 0
v -2864 -704 0
v -2864 -688 0
v -2848 -688 0
v -2832 -704 0
v -2848 -704 0
v -2848 -688 0
v -2832 -688 0
v -3040 -688 0
v -3056 -688 0
v -3056 -672 0
v -3040 -672 0
v -3024 -688 0
v -3040 -688 0
v -3040 -672 0
v -3024 -672 0
v -3008 -688 0
v -3024 -688 0
v -3024 -672 0
v -3008 -672 0
v -2992 -688 0
v -3008 -688 0
v -3008 -672 0
v -2992 -672 0
v -2976 -688 0
v -2992 -688 0
v -2992 -672 0
v -2976 -672 0
v -2960 -688 0
v -2976 -688 0
v -2976 -672 0
v -2960 -672 0
v -2944 -688 0
v -2960 -688 0
v -2960 -672 0
v -2944 -672 0
v -2928 -688 0
v -2944 -688 0
v -2944 -672 0
v -2928 -672 0
v -2912 -688 0
v -2928 -688 0
v -2928 -672 0
v -2912 -672 0
v -2896 -688 0
v -2912 -688 0
v -2912 -672 0
v -2896 -672 0
v -2880 -688 0
v -2896 -688 0
v -2896 -672 0
v -2880 -672 0
v -2864 -688 0
v -2880 -688 0
v -2880 -672 0
v -2864 -672 0
v -2848 -688 0
v -2864 -688 0
v -2864 -672 0
v -2848 -672 0
v -2832 -688 0
v -2848 -688 0
v -2848 -672 0
v -2832 -672 0
v -2992 -672 0
v -3008 -672 0
v -3008 -656 0
v -2992 -656 0
v -2976 -672 0
v -2992 -672 0
v -2992 -656 0
v -2976 -656 0
v -2960 -672 0
v -2976 -672 0
v -2976 -656 0
v -2960 -656 0
v -2944 -672 0
v -2960 -672 0
v -2960 -656 0
v -2944 -656 0
v -2928 -672 0
v -2944 -672 0
v -2944 -656 0
v -2928 -656 0
v -2912 -672 0
v -2928 -672 0
v -2928 -656 0
v -2912 -656 0
v -2896 -672 0
v -2912 -672 0
v -2912 -656 0
v -2896 -656 0
v -2880 -672 0
v -2896 -672 0
v -2896 -656 0
v -2880 -656 0
v -2864 -672 0
v -2880 -672 0
v -2880 -656 0
v -2864 -656 0
v -2848 -672 0
v -2864 -672 0
v -2864 -656 0
v -2848 -656 0
v -2960 -656 0
v -2976 -656 0
v -2976 -640 0
v -2960 -640 0
v -2944 -656 0
v -2960 -656 0
v -2960 -640 0
v -2944 -640 0
v -2928 -656 0
v -2944 -656 0
v -2944 -640 0
v -2928 -640 0
v -2912 -656 0
v -2928 -656 0
v -2928 -640 0
v -2912 -640 0
v -2896 -656 0
v -2912 -656 0
v -2912 -640 0
v -2896 -640 0
v -2880 -656 0
v -2896 -656 0
v -2896 -640 0
v -2880 -640 0
v -2928 -640 0
v -2944 -640 0
v -2944 -624 0
v -2928 -624 0
v -2912 -640 0
v -2928 -640 0
v -2928 -624 0
v -2912 -624 0

# Texture cooridinates (Count = 34)
vt 0.7 0.6666666
vt 0.8 0.6666666
vt 0.8 1
vt 0.7 1
vt 0.6 0.6666666
vt 0.6 1
vt 0 0.6666666
vt 0.1 0.6666666
vt 0.1 1
vt 0 1
vt 0.5 0.6666666
vt 0.5 1
vt 0.6 0
vt 0.7 0
vt 0.7 0.3333333
vt 0.6 0.3333333
vt 0.5 0
vt 0.5 0.3333333
vt 0.4 0
vt 0.4 0.3333333
vt 0.3 0
vt 0.3 0.3333333
vt 0.8 0
vt 0.8 0.3333333
vt 0.2 0
vt 0.2 0.3333333
vt 0.9 0
vt 1 0
vt 1 0.3333333
vt 0.9 0.3333333
vt 0.1 0
vt 0.1 0.3333333
vt 0 0
vt 0 0.3333333

# Normal
vn 0 0 -1

# Mesh description
g mapa-prawie-gotowa_mesh_0005

# Faces
f 1/1/1 2/2/1 3/3/1 4/4/1
f 5/1/1 6/2/1 7/3/1 8/4/1
f 9/1/1 10/2/1 11/3/1 12/4/1
f 13/1/1 14/2/1 15/3/1 16/4/1
f 17/1/1 18/2/1 19/3/1 20/4/1
f 21/1/1 22/2/1 23/3/1 24/4/1
f 25/1/1 26/2/1 27/3/1 28/4/1
f 29/1/1 30/2/1 31/3/1 32/4/1
f 33/1/1 34/2/1 35/3/1 36/4/1
f 37/1/1 38/2/1 39/3/1 40/4/1
f 41/1/1 42/2/1 43/3/1 44/4/1
f 45/1/1 46/2/1 47/3/1 48/4/1
f 49/1/1 50/2/1 51/3/1 52/4/1
f 53/1/1 54/2/1 55/3/1 56/4/1
f 57/1/1 58/2/1 59/3/1 60/4/1
f 61/1/1 62/2/1 63/3/1 64/4/1
f 65/1/1 66/2/1 67/3/1 68/4/1
f 69/1/1 70/2/1 71/3/1 72/4/1
f 73/1/1 74/2/1 75/3/1 76/4/1
f 77/1/1 78/2/1 79/3/1 80/4/1
f 81/1/1 82/2/1 83/3/1 84/4/1
f 85/1/1 86/2/1 87/3/1 88/4/1
f 89/1/1 90/2/1 91/3/1 92/4/1
f 93/1/1 94/2/1 95/3/1 96/4/1
f 97/1/1 98/2/1 99/3/1 100/4/1
f 101/1/1 102/2/1 103/3/1 104/4/1
f 105/1/1 106/2/1 107/3/1 108/4/1
f 109/1/1 110/2/1 111/3/1 112/4/1
f 113/1/1 114/2/1 115/3/1 116/4/1
f 117/1/1 118/2/1 119/3/1 120/4/1
f 121/5/1 122/1/1 123/4/1 124/6/1
f 125/7/1 126/8/1 127/9/1 128/10/1
f 129/7/1 130/8/1 131/9/1 132/10/1
f 133/7/1 134/8/1 135/9/1 136/10/1
f 137/7/1 138/8/1 139/9/1 140/10/1
f 141/7/1 142/8/1 143/9/1 144/10/1
f 145/7/1 146/8/1 147/9/1 148/10/1
f 149/7/1 150/8/1 151/9/1 152/10/1
f 153/7/1 154/8/1 155/9/1 156/10/1
f 157/11/1 158/5/1 159/6/1 160/12/1
f 161/1/1 162/2/1 163/3/1 164/4/1
f 165/1/1 166/2/1 167/3/1 168/4/1
f 169/1/1 170/2/1 171/3/1 172/4/1
f 173/5/1 174/1/1 175/4/1 176/6/1
f 177/7/1 178/8/1 179/9/1 180/10/1
f 181/7/1 182/8/1 183/9/1 184/10/1
f 185/7/1 186/8/1 187/9/1 188/10/1
f 189/7/1 190/8/1 191/9/1 192/10/1
f 193/7/1 194/8/1 195/9/1 196/10/1
f 197/7/1 198/8/1 199/9/1 200/10/1
f 201/7/1 202/8/1 203/9/1 204/10/1
f 205/7/1 206/8/1 207/9/1 208/10/1
f 209/11/1 210/5/1 211/6/1 212/12/1
f 213/1/1 214/2/1 215/3/1 216/4/1
f 217/1/1 218/2/1 219/3/1 220/4/1
f 221/1/1 222/2/1 223/3/1 224/4/1
f 225/1/1 226/2/1 227/3/1 228/4/1
f 229/1/1 230/2/1 231/3/1 232/4/1
f 233/13/1 234/14/1 235/15/1 236/16/1
f 237/17/1 238/13/1 239/16/1 240/18/1
f 241/7/1 242/8/1 243/9/1 244/10/1
f 245/7/1 246/8/1 247/9/1 248/10/1
f 249/7/1 250/8/1 251/9/1 252/10/1
f 253/7/1 254/8/1 255/9/1 256/10/1
f 257/7/1 258/8/1 259/9/1 260/10/1
f 261/7/1 262/8/1 263/9/1 264/10/1
f 265/19/1 266/17/1 267/18/1 268/20/1
f 269/21/1 270/19/1 271/20/1 272/22/1
f 273/1/1 274/2/1 275/3/1 276/4/1
f 277/1/1 278/2/1 279/3/1 280/4/1
f 281/1/1 282/2/1 283/3/1 284/4/1
f 285/1/1 286/2/1 287/3/1 288/4/1
f 289/1/1 290/2/1 291/3/1 292/4/1
f 293/14/1 294/23/1 295/24/1 296/15/1
f 297/14/1 298/23/1 299/24/1 300/15/1
f 301/13/1 302/14/1 303/15/1 304/16/1
f 305/17/1 306/13/1 307/16/1 308/18/1
f 309/7/1 310/8/1 311/9/1 312/10/1
f 313/7/1 314/8/1 315/9/1 316/10/1
f 317/19/1 318/17/1 319/18/1 320/20/1
f 321/21/1 322/19/1 323/20/1 324/22/1
f 325/25/1 326/21/1 327/22/1 328/26/1
f 329/25/1 330/21/1 331/22/1 332/26/1
f 333/1/1 334/2/1 335/3/1 336/4/1
f 337/1/1 338/2/1 339/3/1 340/4/1
f 341/1/1 342/2/1 343/3/1 344/4/1
f 345/14/1 346/23/1 347/24/1 348/15/1
f 349/14/1 350/23/1 351/24/1 352/15/1
f 353/14/1 354/23/1 355/24/1 356/15/1
f 357/14/1 358/23/1 359/24/1 360/15/1
f 361/13/1 362/14/1 363/15/1 364/16/1
f 365/21/1 366/19/1 367/20/1 368/22/1
f 369/25/1 370/21/1 371/22/1 372/26/1
f 373/25/1 374/21/1 375/22/1 376/26/1
f 377/25/1 378/21/1 379/22/1 380/26/1
f 381/25/1 382/21/1 383/22/1 384/26/1
f 385/1/1 386/2/1 387/3/1 388/4/1
f 389/1/1 390/2/1 391/3/1 392/4/1
f 393/1/1 394/2/1 395/3/1 396/4/1
f 397/14/1 398/23/1 399/24/1 400/15/1
f 401/14/1 402/23/1 403/24/1 404/15/1
f 405/14/1 406/23/1 407/24/1 408/15/1
f 409/14/1 410/23/1 411/24/1 412/15/1
f 413/14/1 414/23/1 415/24/1 416/15/1
f 417/25/1 418/21/1 419/22/1 420/26/1
f 421/25/1 422/21/1 423/22/1 424/26/1
f 425/25/1 426/21/1 427/22/1 428/26/1
f 429/25/1 430/21/1 431/22/1 432/26/1
f 433/25/1 434/21/1 435/22/1 436/26/1
f 437/1/1 438/2/1 439/3/1 440/4/1
f 441/1/1 442/2/1 443/3/1 444/4/1
f 445/1/1 446/2/1 447/3/1 448/4/1
f 449/1/1 450/2/1 451/3/1 452/4/1
f 453/14/1 454/23/1 455/24/1 456/15/1
f 457/14/1 458/23/1 459/24/1 460/15/1
f 461/14/1 462/23/1 463/24/1 464/15/1
f 465/14/1 466/23/1 467/24/1 468/15/1
f 469/14/1 470/23/1 471/24/1 472/15/1
f 473/25/1 474/21/1 475/22/1 476/26/1
f 477/25/1 478/21/1 479/22/1 480/26/1
f 481/25/1 482/21/1 483/22/1 484/26/1
f 485/25/1 486/21/1 487/22/1 488/26/1
f 489/25/1 490/21/1 491/22/1 492/26/1
f 493/1/1 494/2/1 495/3/1 496/4/1
f 497/1/1 498/2/1 499/3/1 500/4/1
f 501/1/1 502/2/1 503/3/1 504/4/1
f 505/1/1 506/2/1 507/3/1 508/4/1
f 509/14/1 510/23/1 511/24/1 512/15/1
f 513/14/1 514/23/1 515/24/1 516/15/1
f 517/14/1 518/23/1 519/24/1 520/15/1
f 521/14/1 522/23/1 523/24/1 524/15/1
f 525/14/1 526/23/1 527/24/1 528/15/1
f 529/25/1 530/21/1 531/22/1 532/26/1
f 533/25/1 534/21/1 535/22/1 536/26/1
f 537/25/1 538/21/1 539/22/1 540/26/1
f 541/25/1 542/21/1 543/22/1 544/26/1
f 545/25/1 546/21/1 547/22/1 548/26/1
f 549/1/1 550/2/1 551/3/1 552/4/1
f 553/27/1 554/28/1 555/29/1 556/30/1
f 557/23/1 558/27/1 559/30/1 560/24/1
f 561/14/1 562/23/1 563/24/1 564/15/1
f 565/14/1 566/23/1 567/24/1 568/15/1
f 569/14/1 570/23/1 571/24/1 572/15/1
f 573/25/1 574/21/1 575/22/1 576/26/1
f 577/25/1 578/21/1 579/22/1 580/26/1
f 581/25/1 582/21/1 583/22/1 584/26/1
f 585/31/1 586/25/1 587/26/1 588/32/1
f 589/33/1 590/31/1 591/32/1 592/34/1
f 593/27/1 594/28/1 595/29/1 596/30/1
f 597/23/1 598/27/1 599/30/1 600/24/1
f 601/14/1 602/23/1 603/24/1 604/15/1
f 605/25/1 606/21/1 607/22/1 608/26/1
f 609/31/1 610/25/1 611/26/1 612/32/1
f 613/33/1 614/31/1 615/32/1 616/34/1
f 617/27/1 618/28/1 619/29/1 620/30/1
f 621/33/1 622/31/1 623/32/1 624/34/1

