# Tiled2Unity generated file. Do not modify by hand.
# Wavefront file for 'mapa-prawie-gotowa_mesh_0008.obj'

# Vertices (Count = 248)
v -2448 -960 0
v -2464 -960 0
v -2464 -944 0
v -2448 -944 0
v -2448 -944 0
v -2464 -944 0
v -2464 -928 0
v -2448 -928 0
v -2448 -928 0
v -2464 -928 0
v -2464 -912 0
v -2448 -912 0
v -2448 -912 0
v -2464 -912 0
v -2464 -896 0
v -2448 -896 0
v -2448 -896 0
v -2464 -896 0
v -2464 -880 0
v -2448 -880 0
v -2448 -880 0
v -2464 -880 0
v -2464 -864 0
v -2448 -864 0
v -2448 -864 0
v -2464 -864 0
v -2464 -848 0
v -2448 -848 0
v -2448 -848 0
v -2464 -848 0
v -2464 -832 0
v -2448 -832 0
v -2448 -832 0
v -2464 -832 0
v -2464 -816 0
v -2448 -816 0
v -2448 -816 0
v -2464 -816 0
v -2464 -800 0
v -2448 -800 0
v -2448 -800 0
v -2464 -800 0
v -2464 -784 0
v -2448 -784 0
v -2448 -784 0
v -2464 -784 0
v -2464 -768 0
v -2448 -768 0
v -2448 -768 0
v -2464 -768 0
v -2464 -752 0
v -2448 -752 0
v -2448 -752 0
v -2464 -752 0
v -2464 -736 0
v -2448 -736 0
v -2448 -736 0
v -2464 -736 0
v -2464 -720 0
v -2448 -720 0
v -2448 -720 0
v -2464 -720 0
v -2464 -704 0
v -2448 -704 0
v -2448 -704 0
v -2464 -704 0
v -2464 -688 0
v -2448 -688 0
v -2448 -688 0
v -2464 -688 0
v -2464 -672 0
v -2448 -672 0
v -2448 -672 0
v -2464 -672 0
v -2464 -656 0
v -2448 -656 0
v -2448 -656 0
v -2464 -656 0
v -2464 -640 0
v -2448 -640 0
v -2448 -640 0
v -2464 -640 0
v -2464 -624 0
v -2448 -624 0
v -3184 -624 0
v -3200 -624 0
v -3200 -608 0
v -3184 -608 0
v -3168 -624 0
v -3184 -624 0
v -3184 -608 0
v -3168 -608 0
v -3152 -624 0
v -3168 -624 0
v -3168 -608 0
v -3152 -608 0
v -3136 -624 0
v -3152 -624 0
v -3152 -608 0
v -3136 -608 0
v -3120 -624 0
v -3136 -624 0
v -3136 -608 0
v -3120 -608 0
v -3104 -624 0
v -3120 -624 0
v -3120 -608 0
v -3104 -608 0
v -3088 -624 0
v -3104 -624 0
v -3104 -608 0
v -3088 -608 0
v -3072 -624 0
v -3088 -624 0
v -3088 -608 0
v -3072 -608 0
v -3056 -624 0
v -3072 -624 0
v -3072 -608 0
v -3056 -608 0
v -3040 -624 0
v -3056 -624 0
v -3056 -608 0
v -3040 -608 0
v -3024 -624 0
v -3040 -624 0
v -3040 -608 0
v -3024 -608 0
v -3008 -624 0
v -3024 -624 0
v -3024 -608 0
v -3008 -608 0
v -2992 -624 0
v -3008 -624 0
v -3008 -608 0
v -2992 -608 0
v -2976 -624 0
v -2992 -624 0
v -2992 -608 0
v -2976 -608 0
v -2960 -624 0
v -2976 -624 0
v -2976 -608 0
v -2960 -608 0
v -2944 -624 0
v -2960 -624 0
v -2960 -608 0
v -2944 -608 0
v -2928 -624 0
v -2944 -624 0
v -2944 -608 0
v -2928 -608 0
v -2912 -624 0
v -2928 -624 0
v -2928 -608 0
v -2912 -608 0
v -2896 -624 0
v -2912 -624 0
v -2912 -608 0
v -2896 -608 0
v -2880 -624 0
v -2896 -624 0
v -2896 -608 0
v -2880 -608 0
v -2864 -624 0
v -2880 -624 0
v -2880 -608 0
v -2864 -608 0
v -2848 -624 0
v -2864 -624 0
v -2864 -608 0
v -2848 -608 0
v -2736 -624 0
v -2752 -624 0
v -2752 -608 0
v -2736 -608 0
v -2720 -624 0
v -2736 -624 0
v -2736 -608 0
v -2720 -608 0
v -2704 -624 0
v -2720 -624 0
v -2720 -608 0
v -2704 -608 0
v -2688 -624 0
v -2704 -624 0
v -2704 -608 0
v -2688 -608 0
v -2672 -624 0
v -2688 -624 0
v -2688 -608 0
v -2672 -608 0
v -2656 -624 0
v -2672 -624 0
v -2672 -608 0
v -2656 -608 0
v -2640 -624 0
v -2656 -624 0
v -2656 -608 0
v -2640 -608 0
v -2624 -624 0
v -2640 -624 0
v -2640 -608 0
v -2624 -608 0
v -2608 -624 0
v -2624 -624 0
v -2624 -608 0
v -2608 -608 0
v -2592 -624 0
v -2608 -624 0
v -2608 -608 0
v -2592 -608 0
v -2576 -624 0
v -2592 -624 0
v -2592 -608 0
v -2576 -608 0
v -2560 -624 0
v -2576 -624 0
v -2576 -608 0
v -2560 -608 0
v -2544 -624 0
v -2560 -624 0
v -2560 -608 0
v -2544 -608 0
v -2528 -624 0
v -2544 -624 0
v -2544 -608 0
v -2528 -608 0
v -2512 -624 0
v -2528 -624 0
v -2528 -608 0
v -2512 -608 0
v -2496 -624 0
v -2512 -624 0
v -2512 -608 0
v -2496 -608 0
v -2480 -624 0
v -2496 -624 0
v -2496 -608 0
v -2480 -608 0
v -2464 -624 0
v -2480 -624 0
v -2480 -608 0
v -2464 -608 0
v -2448 -624 0
v -2464 -624 0
v -2464 -608 0
v -2448 -608 0

# Texture cooridinates (Count = 16)
vt 0.8605372 0.07999998
vt 0.8605372 0.04235291
vt 0.8770661 0.04235291
vt 0.8770661 0.07999998
vt 0.8429752 0.07999998
vt 0.8429752 0.04235291
vt 0.8595041 0.04235291
vt 0.8595041 0.07999998
vt 0.08780992 0.9223529
vt 0.1043388 0.9223529
vt 0.1043388 0.96
vt 0.08780992 0.96
vt 0.8780992 0.07999998
vt 0.8780992 0.04235291
vt 0.8946281 0.04235291
vt 0.8946281 0.07999998

# Normal
vn 0 0 -1

# Mesh description
g mapa-prawie-gotowa_mesh_0008

# Faces
f 1/1/1 2/2/1 3/3/1 4/4/1
f 5/1/1 6/2/1 7/3/1 8/4/1
f 9/5/1 10/6/1 11/7/1 12/8/1
f 13/1/1 14/2/1 15/3/1 16/4/1
f 17/9/1 18/10/1 19/11/1 20/12/1
f 21/9/1 22/10/1 23/11/1 24/12/1
f 25/9/1 26/10/1 27/11/1 28/12/1
f 29/9/1 30/10/1 31/11/1 32/12/1
f 33/9/1 34/10/1 35/11/1 36/12/1
f 37/13/1 38/14/1 39/15/1 40/16/1
f 41/5/1 42/6/1 43/7/1 44/8/1
f 45/1/1 46/2/1 47/3/1 48/4/1
f 49/5/1 50/6/1 51/7/1 52/8/1
f 53/5/1 54/6/1 55/7/1 56/8/1
f 57/1/1 58/2/1 59/3/1 60/4/1
f 61/1/1 62/2/1 63/3/1 64/4/1
f 65/1/1 66/2/1 67/3/1 68/4/1
f 69/5/1 70/6/1 71/7/1 72/8/1
f 73/5/1 74/6/1 75/7/1 76/8/1
f 77/5/1 78/6/1 79/7/1 80/8/1
f 81/1/1 82/2/1 83/3/1 84/4/1
f 85/2/1 86/3/1 87/4/1 88/1/1
f 89/6/1 90/7/1 91/8/1 92/5/1
f 93/6/1 94/7/1 95/8/1 96/5/1
f 97/2/1 98/3/1 99/4/1 100/1/1
f 101/2/1 102/3/1 103/4/1 104/1/1
f 105/6/1 106/7/1 107/8/1 108/5/1
f 109/2/1 110/3/1 111/4/1 112/1/1
f 113/2/1 114/3/1 115/4/1 116/1/1
f 117/6/1 118/7/1 119/8/1 120/5/1
f 121/6/1 122/7/1 123/8/1 124/5/1
f 125/2/1 126/3/1 127/4/1 128/1/1
f 129/6/1 130/7/1 131/8/1 132/5/1
f 133/2/1 134/3/1 135/4/1 136/1/1
f 137/6/1 138/7/1 139/8/1 140/5/1
f 141/2/1 142/3/1 143/4/1 144/1/1
f 145/2/1 146/3/1 147/4/1 148/1/1
f 149/6/1 150/7/1 151/8/1 152/5/1
f 153/6/1 154/7/1 155/8/1 156/5/1
f 157/6/1 158/7/1 159/8/1 160/5/1
f 161/2/1 162/3/1 163/4/1 164/1/1
f 165/2/1 166/3/1 167/4/1 168/1/1
f 169/6/1 170/7/1 171/8/1 172/5/1
f 173/2/1 174/3/1 175/4/1 176/1/1
f 177/6/1 178/7/1 179/8/1 180/5/1
f 181/6/1 182/7/1 183/8/1 184/5/1
f 185/2/1 186/3/1 187/4/1 188/1/1
f 189/6/1 190/7/1 191/8/1 192/5/1
f 193/2/1 194/3/1 195/4/1 196/1/1
f 197/2/1 198/3/1 199/4/1 200/1/1
f 201/2/1 202/3/1 203/4/1 204/1/1
f 205/6/1 206/7/1 207/8/1 208/5/1
f 209/6/1 210/7/1 211/8/1 212/5/1
f 213/2/1 214/3/1 215/4/1 216/1/1
f 217/6/1 218/7/1 219/8/1 220/5/1
f 221/6/1 222/7/1 223/8/1 224/5/1
f 225/2/1 226/3/1 227/4/1 228/1/1
f 229/6/1 230/7/1 231/8/1 232/5/1
f 233/2/1 234/3/1 235/4/1 236/1/1
f 237/6/1 238/7/1 239/8/1 240/5/1
f 241/2/1 242/3/1 243/4/1 244/1/1
f 245/6/1 246/7/1 247/8/1 248/5/1

