# Tiled2Unity generated file. Do not modify by hand.
# Wavefront file for 'mapa-prawie-gotowa_mesh_0006.obj'

# Vertices (Count = 164)
v -2816 -848 0
v -2832 -848 0
v -2832 -832 0
v -2816 -832 0
v -2800 -848 0
v -2816 -848 0
v -2816 -832 0
v -2800 -832 0
v -2784 -848 0
v -2800 -848 0
v -2800 -832 0
v -2784 -832 0
v -2768 -848 0
v -2784 -848 0
v -2784 -832 0
v -2768 -832 0
v -2752 -848 0
v -2768 -848 0
v -2768 -832 0
v -2752 -832 0
v -2736 -848 0
v -2752 -848 0
v -2752 -832 0
v -2736 -832 0
v -2720 -848 0
v -2736 -848 0
v -2736 -832 0
v -2720 -832 0
v -2704 -848 0
v -2720 -848 0
v -2720 -832 0
v -2704 -832 0
v -2688 -848 0
v -2704 -848 0
v -2704 -832 0
v -2688 -832 0
v -2672 -848 0
v -2688 -848 0
v -2688 -832 0
v -2672 -832 0
v -2672 -832 0
v -2688 -832 0
v -2688 -816 0
v -2672 -816 0
v -3056 -816 0
v -3072 -816 0
v -3072 -800 0
v -3056 -800 0
v -2752 -816 0
v -2768 -816 0
v -2768 -800 0
v -2752 -800 0
v -2736 -816 0
v -2752 -816 0
v -2752 -800 0
v -2736 -800 0
v -2720 -816 0
v -2736 -816 0
v -2736 -800 0
v -2720 -800 0
v -2704 -816 0
v -2720 -816 0
v -2720 -800 0
v -2704 -800 0
v -2688 -816 0
v -2704 -816 0
v -2704 -800 0
v -2688 -800 0
v -2672 -816 0
v -2688 -816 0
v -2688 -800 0
v -2672 -800 0
v -3008 -800 0
v -3024 -800 0
v -3024 -784 0
v -3008 -784 0
v -2992 -800 0
v -3008 -800 0
v -3008 -784 0
v -2992 -784 0
v -2960 -800 0
v -2976 -800 0
v -2976 -784 0
v -2960 -784 0
v -2928 -800 0
v -2944 -800 0
v -2944 -784 0
v -2928 -784 0
v -2912 -800 0
v -2928 -800 0
v -2928 -784 0
v -2912 -784 0
v -2896 -800 0
v -2912 -800 0
v -2912 -784 0
v -2896 -784 0
v -2848 -800 0
v -2864 -800 0
v -2864 -784 0
v -2848 -784 0
v -2752 -800 0
v -2768 -800 0
v -2768 -784 0
v -2752 -784 0
v -2752 -784 0
v -2768 -784 0
v -2768 -768 0
v -2752 -768 0
v -2752 -768 0
v -2768 -768 0
v -2768 -752 0
v -2752 -752 0
v -3056 -752 0
v -3072 -752 0
v -3072 -736 0
v -3056 -736 0
v -2752 -752 0
v -2768 -752 0
v -2768 -736 0
v -2752 -736 0
v -3056 -736 0
v -3072 -736 0
v -3072 -720 0
v -3056 -720 0
v -2752 -736 0
v -2768 -736 0
v -2768 -720 0
v -2752 -720 0
v -3056 -720 0
v -3072 -720 0
v -3072 -704 0
v -3056 -704 0
v -2752 -720 0
v -2768 -720 0
v -2768 -704 0
v -2752 -704 0
v -3040 -704 0
v -3056 -704 0
v -3056 -688 0
v -3040 -688 0
v -2752 -704 0
v -2768 -704 0
v -2768 -688 0
v -2752 -688 0
v -3040 -688 0
v -3056 -688 0
v -3056 -672 0
v -3040 -672 0
v -3024 -688 0
v -3040 -688 0
v -3040 -672 0
v -3024 -672 0
v -3008 -688 0
v -3024 -688 0
v -3024 -672 0
v -3008 -672 0
v -2752 -688 0
v -2768 -688 0
v -2768 -672 0
v -2752 -672 0
v -3024 -672 0
v -3040 -672 0
v -3040 -656 0
v -3024 -656 0

# Texture cooridinates (Count = 22)
vt 0.7 0.6666666
vt 0.8 0.6666666
vt 0.8 1
vt 0.7 1
vt 0.8 0.3333333
vt 0.9 0.3333333
vt 0.9 0.6666666
vt 0.2 0.3333333
vt 0.3 0.3333333
vt 0.3 0.6666666
vt 0.2 0.6666666
vt 0.3 1
vt 0.2 1
vt 0.4 0.6666666
vt 0.5 0.6666666
vt 0.5 1
vt 0.4 1
vt 0.4 0.3333333
vt 0.7 0.3333333
vt 0.6 0.3333333
vt 0.6 0.6666666
vt 0.5 0.3333333

# Normal
vn 0 0 -1

# Mesh description
g mapa-prawie-gotowa_mesh_0006

# Faces
f 1/1/1 2/2/1 3/3/1 4/4/1
f 5/1/1 6/2/1 7/3/1 8/4/1
f 9/1/1 10/2/1 11/3/1 12/4/1
f 13/1/1 14/2/1 15/3/1 16/4/1
f 17/1/1 18/2/1 19/3/1 20/4/1
f 21/1/1 22/2/1 23/3/1 24/4/1
f 25/1/1 26/2/1 27/3/1 28/4/1
f 29/1/1 30/2/1 31/3/1 32/4/1
f 33/1/1 34/2/1 35/3/1 36/4/1
f 37/1/1 38/2/1 39/3/1 40/4/1
f 41/1/1 42/2/1 43/3/1 44/4/1
f 45/5/1 46/6/1 47/7/1 48/2/1
f 49/1/1 50/2/1 51/3/1 52/4/1
f 53/1/1 54/2/1 55/3/1 56/4/1
f 57/1/1 58/2/1 59/3/1 60/4/1
f 61/1/1 62/2/1 63/3/1 64/4/1
f 65/1/1 66/2/1 67/3/1 68/4/1
f 69/1/1 70/2/1 71/3/1 72/4/1
f 73/8/1 74/9/1 75/10/1 76/11/1
f 77/8/1 78/9/1 79/10/1 80/11/1
f 81/11/1 82/10/1 83/12/1 84/13/1
f 85/14/1 86/15/1 87/16/1 88/17/1
f 89/14/1 90/15/1 91/16/1 92/17/1
f 93/14/1 94/15/1 95/16/1 96/17/1
f 97/9/1 98/18/1 99/14/1 100/10/1
f 101/1/1 102/2/1 103/3/1 104/4/1
f 105/1/1 106/2/1 107/3/1 108/4/1
f 109/1/1 110/2/1 111/3/1 112/4/1
f 113/19/1 114/5/1 115/2/1 116/1/1
f 117/1/1 118/2/1 119/3/1 120/4/1
f 121/20/1 122/19/1 123/1/1 124/21/1
f 125/1/1 126/2/1 127/3/1 128/4/1
f 129/5/1 130/6/1 131/7/1 132/2/1
f 133/1/1 134/2/1 135/3/1 136/4/1
f 137/8/1 138/9/1 139/10/1 140/11/1
f 141/1/1 142/2/1 143/3/1 144/4/1
f 145/5/1 146/6/1 147/7/1 148/2/1
f 149/22/1 150/20/1 151/21/1 152/15/1
f 153/5/1 154/6/1 155/7/1 156/2/1
f 157/1/1 158/2/1 159/3/1 160/4/1
f 161/18/1 162/22/1 163/15/1 164/14/1

