# Tiled2Unity generated file. Do not modify by hand.
# Wavefront file for 'map_mesh_0013.obj'

# Vertices (Count = 12)
v -4528 -976 0
v -4544 -976 0
v -4544 -960 0
v -4528 -960 0
v -4528 -992 0
v -4544 -992 0
v -4544 -976 0
v -4528 -976 0
v -4544 -1008 0
v -4560 -1008 0
v -4560 -992 0
v -4544 -992 0

# Texture cooridinates (Count = 4)
vt 0.1590909 0.88
vt 0.1756198 0.88
vt 0.1756198 0.9176471
vt 0.1590909 0.9176471

# Normal
vn 0 0 -1

# Mesh description
g map_mesh_0013

# Faces
f 1/1/1 2/2/1 3/3/1 4/4/1
f 5/1/1 6/2/1 7/3/1 8/4/1
f 9/1/1 10/2/1 11/3/1 12/4/1

