# Tiled2Unity generated file. Do not modify by hand.
# Wavefront file for 'map_mesh_0005.obj'

# Vertices (Count = 20)
v -4704 -832 0
v -4720 -832 0
v -4720 -816 0
v -4704 -816 0
v -4688 -832 0
v -4704 -832 0
v -4704 -816 0
v -4688 -816 0
v -4672 -832 0
v -4688 -832 0
v -4688 -816 0
v -4672 -816 0
v -4656 -832 0
v -4672 -832 0
v -4672 -816 0
v -4656 -816 0
v -4544 -864 0
v -4560 -864 0
v -4560 -848 0
v -4544 -848 0

# Texture cooridinates (Count = 4)
vt 0.08884297 0.96
vt 0.1053719 0.96
vt 0.1053719 0.997647
vt 0.08884297 0.997647

# Normal
vn 0 0 -1

# Mesh description
g map_mesh_0005

# Faces
f 1/1/1 2/2/1 3/3/1 4/4/1
f 5/1/1 6/2/1 7/3/1 8/4/1
f 9/1/1 10/2/1 11/3/1 12/4/1
f 13/1/1 14/2/1 15/3/1 16/4/1
f 17/1/1 18/2/1 19/3/1 20/4/1

