# Tiled2Unity generated file. Do not modify by hand.
# Wavefront file for 'map_mesh_0014.obj'

# Vertices (Count = 80)
v -4128 -48 0
v -4144 -48 0
v -4144 -32 0
v -4128 -32 0
v -4112 -48 0
v -4128 -48 0
v -4128 -32 0
v -4112 -32 0
v -4096 -48 0
v -4112 -48 0
v -4112 -32 0
v -4096 -32 0
v -4080 -48 0
v -4096 -48 0
v -4096 -32 0
v -4080 -32 0
v -4064 -48 0
v -4080 -48 0
v -4080 -32 0
v -4064 -32 0
v -4048 -48 0
v -4064 -48 0
v -4064 -32 0
v -4048 -32 0
v -4160 -64 0
v -4176 -64 0
v -4176 -48 0
v -4160 -48 0
v -4128 -64 0
v -4144 -64 0
v -4144 -48 0
v -4128 -48 0
v -4112 -64 0
v -4128 -64 0
v -4128 -48 0
v -4112 -48 0
v -4096 -64 0
v -4112 -64 0
v -4112 -48 0
v -4096 -48 0
v -4080 -64 0
v -4096 -64 0
v -4096 -48 0
v -4080 -48 0
v -4064 -64 0
v -4080 -64 0
v -4080 -48 0
v -4064 -48 0
v -4048 -64 0
v -4064 -64 0
v -4064 -48 0
v -4048 -48 0
v -4160 -80 0
v -4176 -80 0
v -4176 -64 0
v -4160 -64 0
v -4128 -80 0
v -4144 -80 0
v -4144 -64 0
v -4128 -64 0
v -4112 -80 0
v -4128 -80 0
v -4128 -64 0
v -4112 -64 0
v -4096 -80 0
v -4112 -80 0
v -4112 -64 0
v -4096 -64 0
v -4080 -80 0
v -4096 -80 0
v -4096 -64 0
v -4080 -64 0
v -4064 -80 0
v -4080 -80 0
v -4080 -64 0
v -4064 -64 0
v -4048 -80 0
v -4064 -80 0
v -4064 -64 0
v -4048 -64 0

# Texture cooridinates (Count = 12)
vt 0.6157025 0.84
vt 0.6322314 0.84
vt 0.6322314 0.877647
vt 0.6157025 0.877647
vt 0.5630165 0.36
vt 0.5795454 0.36
vt 0.5795454 0.3976471
vt 0.5630165 0.3976471
vt 0.3347107 0.96
vt 0.3512397 0.96
vt 0.3512397 0.997647
vt 0.3347107 0.997647

# Normal
vn 0 0 -1

# Mesh description
g map_mesh_0014

# Faces
f 1/1/1 2/2/1 3/3/1 4/4/1
f 5/1/1 6/2/1 7/3/1 8/4/1
f 9/1/1 10/2/1 11/3/1 12/4/1
f 13/1/1 14/2/1 15/3/1 16/4/1
f 17/1/1 18/2/1 19/3/1 20/4/1
f 21/1/1 22/2/1 23/3/1 24/4/1
f 25/5/1 26/6/1 27/7/1 28/8/1
f 29/1/1 30/2/1 31/3/1 32/4/1
f 33/1/1 34/2/1 35/3/1 36/4/1
f 37/1/1 38/2/1 39/3/1 40/4/1
f 41/1/1 42/2/1 43/3/1 44/4/1
f 45/1/1 46/2/1 47/3/1 48/4/1
f 49/1/1 50/2/1 51/3/1 52/4/1
f 53/9/1 54/10/1 55/11/1 56/12/1
f 57/1/1 58/2/1 59/3/1 60/4/1
f 61/1/1 62/2/1 63/3/1 64/4/1
f 65/1/1 66/2/1 67/3/1 68/4/1
f 69/1/1 70/2/1 71/3/1 72/4/1
f 73/1/1 74/2/1 75/3/1 76/4/1
f 77/1/1 78/2/1 79/3/1 80/4/1

